<?xml version="1.0" encoding="utf-8"?>
<!-- Generator: Adobe Illustrator 22.0.1, SVG Export Plug-In . SVG Version: 6.00 Build 0)  -->
<svg version="1.1" xmlns="http://www.w3.org/2000/svg" xmlns:xlink="http://www.w3.org/1999/xlink" x="0px" y="0px"
	 viewBox="0 0 100 100" style="enable-background:new 0 0 100 100;" xml:space="preserve">
<style type="text/css">
	.st0{enable-background:new    ;}
	.st1{fill:#2B3C7A;}
	.st2{fill:#3775BA;}
</style>
<g id="Rectangle_1_1_" class="st0">
	<g>
		<polygon class="st1" points="5.5,5.4 22.9,5.5 22.9,0 0,0 0,100 64,100 64,94.5 5.5,94.5 		"/>
		<polygon class="st1" points="36,0 36,5.5 94.6,5.5 94.5,94.5 77.1,94.5 77.1,100 100,100 100,0 		"/>
	</g>
	<rect x="31.5" class="st2" width="5.5" height="5.4"/>
	<g>
		<polygon class="st1" points="23,35.3 23,53.6 31.8,53.6 33.5,57.4 18.8,57.4 18.8,35.3 		"/>
		<polygon class="st1" points="48.1,41.9 36.3,69.4 32,69.4 37.2,57.2 30.9,41.9 35.4,41.9 37.8,48.6 39.3,53 40.9,48.7 43.8,41.9 
					"/>
		<path class="st1" d="M54.5,41.9l0.3,1.8c1.2-1.9,2.8-2.2,4.4-2.2c1.6,0,3.2,0.6,4,1.5l-1.7,3.3c-0.8-0.7-1.5-1-2.8-1
			c-2,0-3.9,1.1-3.9,3.9l0,8.2l-3.9,0l0-15.6L54.5,41.9z"/>
		<path class="st1" d="M77,41.9l3.7,0l0,15.6l-3.6,0l-0.2-2.3c-0.9,1.8-3.3,2.7-5.1,2.7c-4.6,0-8-2.8-8-8.3c0-5.4,3.6-8.2,8.1-8.1
			c2.1,0,4.1,1,5,2.5L77,41.9z M67.6,49.6c0,3,2.1,4.7,4.6,4.7c6.1,0,6.1-9.4,0-9.4C69.7,44.9,67.6,46.7,67.6,49.6z"/>
	</g>
	<rect x="63.1" y="94.6" class="st2" width="5.5" height="5.4"/>
</g>
<g id="Forme_3_1_" class="st0">
</g>
<g id="Forme_15_1_" class="st0">
</g>
<g id="Forme_4_1_" class="st0">
</g>
</svg>
